<?xml version="1.0" encoding="UTF-8"?>
<svg id="Camada_1" xmlns="http://www.w3.org/2000/svg" version="1.1" xmlns:xlink="http://www.w3.org/1999/xlink" viewBox="0 0 835.49 712.87">
  <!-- Generator: Adobe Illustrator 29.8.3, SVG Export Plug-In . SVG Version: 2.1.1 Build 3)  -->
  <defs>
    <style>
      .st0, .st1, .st2, .st3 {
        font-family: MonumentExtended-Regular, 'Monument Extended';
      }

      .st0, .st2 {
        fill: #fff;
      }

      .st0, .st3 {
        font-size: 25.91px;
        letter-spacing: .9em;
      }

      .st4 {
        fill: none;
      }

      .st1 {
        font-size: 36.93px;
        letter-spacing: .9em;
      }

      .st2 {
        font-size: 23.26px;
        letter-spacing: .9em;
      }

      .st5 {
        fill: #ffd537;
      }

      .st6 {
        clip-path: url(#clippath);
      }
    </style>
    <clipPath id="clippath">
      <rect class="st4" x="-4254.42" y="536.79" width="1913.35" height="844.04"/>
    </clipPath>
  </defs>
  <rect x="-1600.52" y="-1060.24" width="1833.15" height="940.22"/>
  <path class="st5" d="M-2799.59,190.17c0-41.42,22.5-61.19,75-61.19s75,19.94,75,61.19-22.67,61.53-75,61.53-75-19.94-75-61.53ZM-2693.91,190.17c0-12.44-2.97.46-29.22.46s-32.15-13.08-32.15-.46,4.6,24.03,30.68,24.03,30.68-11.42,30.68-24.03Z"/>
  <path class="st5" d="M10.18,355.51C10.18,130.42,132.44,22.98,417.74,22.98s407.57,108.37,407.57,332.53-123.19,334.39-407.57,334.39S10.18,581.53,10.18,355.51ZM584.48,355.51c0-67.62-16.11,2.52-158.76,2.52s-174.7-71.06-174.7-2.52,25.01,130.61,166.73,130.61,166.73-62.07,166.73-130.61Z"/>
  <g>
    <g>
      <path class="st5" d="M-1723.62,449.19c0,19.39-11.63,34.9-38.44,34.9h-103.61c-2.37,0-4.29-1.92-4.29-4.29v-109.44c0-2.37,1.92-4.29,4.29-4.29h98.56c26.81,0,35.07,12.14,35.07,30.01,0,6.38-2.5,12.88-6.71,18.8-1.32,1.86-1.02,4.38.71,5.85,8.55,7.25,14.43,17.05,14.43,28.46ZM-1826.13,403.26c0,2.37,1.92,4.29,4.29,4.29h36.17c4.38,0,9.78,0,9.78-6.41s-5.4-6.41-9.78-6.41h-36.17c-2.37,0-4.29,1.92-4.29,4.29v4.23ZM-1767.46,445.82c0-6.24-5.4-6.24-9.78-6.24h-44.6c-2.37,0-4.29,1.92-4.29,4.29v3.89c0,2.37,1.92,4.29,4.29,4.29h44.6c4.38,0,9.78,0,9.78-6.24Z"/>
      <path class="st5" d="M-1572.49,448.49c0,19.39-11.63,34.9-38.44,34.9h-103.61c-2.37,0-4.29-1.92-4.29-4.29v-109.44c0-2.37,1.92-4.29,4.29-4.29h98.56c26.81,0,35.07,12.14,35.07,30.01,0,6.38-2.5,12.88-6.71,18.8-1.32,1.86-1.02,4.38.71,5.85,8.55,7.25,14.43,17.05,14.43,28.46ZM-1675,402.56c0,2.37,1.92,4.29,4.29,4.29h36.17c4.38,0,9.78,0,9.78-6.41s-5.4-6.41-9.78-6.41h-36.17c-2.37,0-4.29,1.92-4.29,4.29v4.23ZM-1616.32,445.12c0-6.24-5.4-6.24-9.78-6.24h-44.6c-2.37,0-4.29,1.92-4.29,4.29v3.89c0,2.37,1.92,4.29,4.29,4.29h44.6c4.38,0,9.78,0,9.78-6.24Z"/>
      <path class="st5" d="M-1572.49,424.21c0-40.97,22.26-60.53,74.18-60.53s74.18,19.73,74.18,60.53-22.42,60.86-74.18,60.86-74.18-19.73-74.18-60.86ZM-1467.96,424.21c0-12.31-2.93.46-28.9.46s-31.8-12.93-31.8-.46,4.55,23.77,30.35,23.77,30.35-11.3,30.35-23.77Z"/>
      <path class="st5" d="M-1297.68,450.59v28.51c0,2.37-1.92,4.29-4.29,4.29h-112.81c-2.37,0-4.29-1.92-4.29-4.29v-109.44c0-2.37,1.92-4.29,4.29-4.29h35.25c2.37,0,4.29,1.92,4.29,4.29v72.35c0,2.37,1.92,4.29,4.29,4.29h68.97c2.37,0,4.29,1.92,4.29,4.29Z"/>
      <path class="st5" d="M-1149.65,424.38c0,40.13-26.81,59.01-55.3,59.01h-83.38c-2.37,0-4.29-1.92-4.29-4.29v-109.44c0-2.37,1.92-4.29,4.29-4.29h83.38c28.5,0,55.3,18.88,55.3,59.01ZM-1193.48,424.38c0-21.92-15.51-21.92-24.95-21.92h-26.06c-2.37,0-4.29,1.92-4.29,4.29v35.26c0,2.37,1.92,4.29,4.29,4.29h26.06c9.44,0,24.95,0,24.95-21.92Z"/>
    </g>
    <text class="st0" transform="translate(-1666.51 355.33)"><tspan x="0" y="0">AGÊNCIA</tspan></text>
  </g>
  <g>
    <g>
      <path class="st5" d="M-819.6,397.06c0,17.41-10.44,31.33-34.5,31.33h-93c-2.13,0-3.85-1.72-3.85-3.85v-98.23c0-2.13,1.72-3.85,3.85-3.85h88.46c24.06,0,31.48,10.9,31.48,26.94,0,5.73-2.25,11.56-6.02,16.87-1.19,1.67-.92,3.93.64,5.25,7.67,6.51,12.95,15.31,12.95,25.55ZM-911.62,355.83c0,2.13,1.72,3.85,3.85,3.85h32.47c3.94,0,8.78,0,8.78-5.75s-4.84-5.75-8.78-5.75h-32.47c-2.13,0-3.85,1.72-3.85,3.85v3.8ZM-858.95,394.03c0-5.6-4.84-5.6-8.78-5.6h-40.04c-2.13,0-3.85,1.72-3.85,3.85v3.49c0,2.13,1.72,3.85,3.85,3.85h40.04c3.94,0,8.78,0,8.78-5.6Z"/>
      <path class="st5" d="M-683.94,396.43c0,17.41-10.44,31.33-34.5,31.33h-93c-2.13,0-3.85-1.72-3.85-3.85v-98.23c0-2.13,1.72-3.85,3.85-3.85h88.46c24.06,0,31.48,10.9,31.48,26.94,0,5.73-2.25,11.56-6.02,16.87-1.19,1.67-.92,3.93.64,5.25,7.67,6.51,12.95,15.31,12.95,25.55ZM-775.96,355.2c0,2.13,1.72,3.85,3.85,3.85h32.47c3.94,0,8.78,0,8.78-5.75s-4.84-5.75-8.78-5.75h-32.47c-2.13,0-3.85,1.72-3.85,3.85v3.8ZM-723.29,393.4c0-5.6-4.84-5.6-8.78-5.6h-40.04c-2.13,0-3.85,1.72-3.85,3.85v3.49c0,2.13,1.72,3.85,3.85,3.85h40.04c3.94,0,8.78,0,8.78-5.6Z"/>
      <path class="st5" d="M-683.95,374.64c0-36.78,19.98-54.33,66.59-54.33s66.59,17.71,66.59,54.33-20.13,54.63-66.59,54.63-66.59-17.71-66.59-54.63ZM-590.12,374.64c0-11.05-2.63.41-25.94.41s-28.54-11.61-28.54-.41,4.09,21.34,27.24,21.34,27.24-10.14,27.24-21.34Z"/>
      <path class="st5" d="M-437.27,398.32v25.59c0,2.13-1.72,3.85-3.85,3.85h-101.26c-2.13,0-3.85-1.72-3.85-3.85v-98.23c0-2.13,1.72-3.85,3.85-3.85h31.64c2.13,0,3.85,1.72,3.85,3.85v64.94c0,2.13,1.72,3.85,3.85,3.85h61.91c2.13,0,3.85,1.72,3.85,3.85Z"/>
      <path class="st5" d="M-304.4,374.79c0,36.02-24.06,52.97-49.64,52.97h-74.84c-2.13,0-3.85-1.72-3.85-3.85v-98.23c0-2.13,1.72-3.85,3.85-3.85h74.84c25.58,0,49.64,16.95,49.64,52.97ZM-343.75,374.79c0-19.68-13.92-19.68-22.4-19.68h-23.39c-2.13,0-3.85,1.72-3.85,3.85v31.65c0,2.13,1.72,3.85,3.85,3.85h23.39c8.48,0,22.4,0,22.4-19.67Z"/>
    </g>
    <text class="st2" transform="translate(-768.34 312.81)"><tspan x="0" y="0">AGÊNCIA</tspan></text>
  </g>
  <g>
    <path d="M-878.38-371.12c0,19.39-11.63,34.9-38.44,34.9h-103.61c-2.37,0-4.29-1.92-4.29-4.29v-109.44c0-2.37,1.92-4.29,4.29-4.29h98.56c26.81,0,35.07,12.14,35.07,30.01,0,6.38-2.5,12.88-6.71,18.8-1.32,1.86-1.02,4.38.71,5.85,8.55,7.25,14.43,17.05,14.43,28.46ZM-980.89-417.05c0,2.37,1.92,4.29,4.29,4.29h36.17c4.38,0,9.78,0,9.78-6.41s-5.4-6.41-9.78-6.41h-36.17c-2.37,0-4.29,1.92-4.29,4.29v4.23ZM-922.21-374.49c0-6.24-5.4-6.24-9.78-6.24h-44.6c-2.37,0-4.29,1.92-4.29,4.29v3.89c0,2.37,1.92,4.29,4.29,4.29h44.6c4.38,0,9.78,0,9.78-6.24Z"/>
    <path d="M-727.24-371.82c0,19.39-11.63,34.9-38.44,34.9h-103.61c-2.37,0-4.29-1.92-4.29-4.29v-109.44c0-2.37,1.92-4.29,4.29-4.29h98.56c26.81,0,35.07,12.14,35.07,30.01,0,6.38-2.5,12.88-6.71,18.8-1.32,1.86-1.02,4.38.71,5.85,8.55,7.25,14.43,17.05,14.43,28.46ZM-829.75-417.75c0,2.37,1.92,4.29,4.29,4.29h36.17c4.38,0,9.78,0,9.78-6.41s-5.4-6.41-9.78-6.41h-36.17c-2.37,0-4.29,1.92-4.29,4.29v4.23ZM-771.08-375.19c0-6.24-5.4-6.24-9.78-6.24h-44.6c-2.37,0-4.29,1.92-4.29,4.29v3.89c0,2.37,1.92,4.29,4.29,4.29h44.6c4.38,0,9.78,0,9.78-6.24Z"/>
    <path d="M-727.24-396.1c0-40.97,22.26-60.53,74.18-60.53s74.18,19.73,74.18,60.53-22.42,60.86-74.18,60.86-74.18-19.73-74.18-60.86ZM-622.71-396.1c0-12.31-2.93.46-28.9.46s-31.8-12.93-31.8-.46,4.55,23.77,30.35,23.77,30.35-11.3,30.35-23.77Z"/>
    <path d="M-452.43-369.72v28.51c0,2.37-1.92,4.29-4.29,4.29h-112.81c-2.37,0-4.29-1.92-4.29-4.29v-109.44c0-2.37,1.92-4.29,4.29-4.29h35.25c2.37,0,4.29,1.92,4.29,4.29v72.35c0,2.37,1.92,4.29,4.29,4.29h68.97c2.37,0,4.29,1.92,4.29,4.29Z"/>
    <path d="M-304.4-395.93c0,40.13-26.81,59.01-55.3,59.01h-83.38c-2.37,0-4.29-1.92-4.29-4.29v-109.44c0-2.37,1.92-4.29,4.29-4.29h83.38c28.5,0,55.3,18.88,55.3,59.01ZM-348.24-395.93c0-21.92-15.51-21.92-24.95-21.92h-26.06c-2.37,0-4.29,1.92-4.29,4.29v35.26c0,2.37,1.92,4.29,4.29,4.29h26.06c9.44,0,24.95,0,24.95-21.92Z"/>
  </g>
  <text class="st3" transform="translate(-808.1 -302.59)"><tspan x="0" y="0">STUDIO</tspan></text>
  <g>
    <g>
      <path class="st5" d="M-733.86,1164.44c0,27.63-16.58,49.74-54.78,49.74h-147.66c-3.38,0-6.12-2.74-6.12-6.12v-155.96c0-3.38,2.74-6.12,6.12-6.12h140.45c38.2,0,49.98,17.3,49.98,42.77,0,9.09-3.57,18.36-9.56,26.79-1.88,2.65-1.46,6.23,1.02,8.34,12.18,10.33,20.56,24.3,20.56,40.56ZM-879.94,1098.98c0,3.38,2.74,6.12,6.12,6.12h51.55c6.25,0,13.94,0,13.94-9.13s-7.69-9.13-13.94-9.13h-51.55c-3.38,0-6.12,2.74-6.12,6.12v6.03ZM-796.33,1159.63c0-8.89-7.69-8.89-13.94-8.89h-63.56c-3.38,0-6.12,2.74-6.12,6.12v5.55c0,3.38,2.74,6.12,6.12,6.12h63.56c6.25,0,13.94,0,13.94-8.89Z"/>
      <path class="st5" d="M-518.47,1163.44c0,27.63-16.58,49.74-54.78,49.74h-147.66c-3.38,0-6.12-2.74-6.12-6.12v-155.96c0-3.38,2.74-6.12,6.12-6.12h140.45c38.2,0,49.98,17.3,49.98,42.77,0,9.09-3.57,18.36-9.56,26.79-1.88,2.65-1.46,6.23,1.02,8.34,12.18,10.33,20.56,24.3,20.56,40.56ZM-664.56,1097.98c0,3.38,2.74,6.12,6.12,6.12h51.55c6.25,0,13.94,0,13.94-9.13s-7.69-9.13-13.94-9.13h-51.55c-3.38,0-6.12,2.74-6.12,6.12v6.03ZM-580.94,1158.63c0-8.89-7.69-8.89-13.94-8.89h-63.56c-3.38,0-6.12,2.74-6.12,6.12v5.55c0,3.38,2.74,6.12,6.12,6.12h63.56c6.25,0,13.94,0,13.94-8.89Z"/>
      <path class="st5" d="M-518.48,1128.84c0-58.39,31.72-86.26,105.72-86.26s105.72,28.11,105.72,86.26-31.96,86.74-105.72,86.74-105.72-28.11-105.72-86.74ZM-369.51,1128.84c0-17.54-4.18.65-41.18.65s-45.32-18.43-45.32-.65,6.49,33.88,43.25,33.88,43.25-16.1,43.25-33.88Z"/>
      <path class="st5" d="M-126.84,1166.43v40.63c0,3.38-2.74,6.12-6.12,6.12h-160.77c-3.38,0-6.12-2.74-6.12-6.12v-155.96c0-3.38,2.74-6.12,6.12-6.12h50.24c3.38,0,6.12,2.74,6.12,6.12v103.1c0,3.38,2.74,6.12,6.12,6.12h98.29c3.38,0,6.12,2.74,6.12,6.12Z"/>
      <path class="st5" d="M84.12,1129.08c0,57.18-38.2,84.09-78.81,84.09h-118.83c-3.38,0-6.12-2.74-6.12-6.12v-155.96c0-3.38,2.74-6.12,6.12-6.12H5.31c40.61,0,78.81,26.91,78.81,84.1ZM21.65,1129.08c0-31.24-22.11-31.24-35.56-31.24h-37.13c-3.38,0-6.12,2.74-6.12,6.12v50.24c0,3.38,2.74,6.12,6.12,6.12H-13.92c13.46,0,35.56,0,35.56-31.24Z"/>
    </g>
    <text class="st1" transform="translate(-602.22 1266.16)"><tspan x="0" y="0">STUDIO</tspan></text>
  </g>
  <rect x="-4254.42" y="536.79" width="1913.35" height="844.04"/>
  <g class="st6">
    <path class="st5" d="M-3064.82,1262.71c0-274.66,149.19-405.77,497.32-405.77s497.32,132.24,497.32,405.77-150.32,408.03-497.32,408.03-497.32-132.24-497.32-408.03ZM-2364.05,1262.71c0-82.52-19.66,3.07-193.73,3.07s-213.18-86.71-213.18-3.07,30.52,159.37,203.45,159.37,203.45-75.74,203.45-159.37Z"/>
  </g>
</svg>